<svg width="157" height="39" viewBox="0 0 157 39" fill="none" xmlns="http://www.w3.org/2000/svg">
<path d="M105.318 16.5156L98.5391 36.5869H95.8223L102.602 16.5156H105.318ZM110.727 24.1074V35H107.058V21.2637H110.498L110.727 24.1074ZM110.219 27.6494H109.203C109.203 26.693 109.317 25.8128 109.546 25.0088C109.783 24.1963 110.126 23.4938 110.574 22.9014C111.031 22.3005 111.594 21.835 112.263 21.5049C112.931 21.1748 113.706 21.0098 114.586 21.0098C115.195 21.0098 115.754 21.1029 116.262 21.2891C116.77 21.4668 117.205 21.7503 117.569 22.1396C117.942 22.5205 118.229 23.0199 118.433 23.6377C118.636 24.2471 118.737 24.9792 118.737 25.834V35H115.081V26.2402C115.081 25.6139 114.996 25.1315 114.827 24.793C114.658 24.4544 114.417 24.2174 114.104 24.082C113.799 23.9466 113.431 23.8789 112.999 23.8789C112.525 23.8789 112.11 23.9762 111.755 24.1709C111.408 24.3656 111.12 24.6364 110.892 24.9834C110.663 25.3219 110.494 25.7197 110.384 26.1768C110.274 26.6338 110.219 27.1247 110.219 27.6494ZM118.395 27.2305L117.087 27.3955C117.087 26.4984 117.197 25.6647 117.417 24.8945C117.646 24.1243 117.98 23.4473 118.42 22.8633C118.868 22.2793 119.423 21.8265 120.083 21.5049C120.743 21.1748 121.505 21.0098 122.368 21.0098C123.028 21.0098 123.629 21.1071 124.171 21.3018C124.713 21.488 125.174 21.7884 125.555 22.2031C125.944 22.6094 126.24 23.1426 126.443 23.8027C126.655 24.4629 126.761 25.2712 126.761 26.2275V35H123.092V26.2275C123.092 25.5928 123.007 25.1104 122.838 24.7803C122.677 24.4417 122.44 24.209 122.127 24.082C121.822 23.9466 121.458 23.8789 121.035 23.8789C120.595 23.8789 120.21 23.9678 119.88 24.1455C119.55 24.3148 119.275 24.5518 119.055 24.8564C118.835 25.1611 118.67 25.5166 118.56 25.9229C118.45 26.3206 118.395 26.7565 118.395 27.2305Z" fill="#293145"/>
<path d="M62.7822 37H38.417V32.166L49.916 19.9102C51.4948 18.1849 52.6585 16.6794 53.4072 15.3936C54.1722 14.1077 54.5547 12.887 54.5547 11.7314C54.5547 10.1527 54.1559 8.91569 53.3584 8.02051C52.5609 7.10905 51.4215 6.65332 49.9404 6.65332C48.3454 6.65332 47.084 7.20671 46.1562 8.31348C45.2448 9.40397 44.7891 10.8444 44.7891 12.6348H37.709C37.709 10.4701 38.2217 8.49251 39.2471 6.70215C40.2887 4.91178 41.7536 3.51204 43.6416 2.50293C45.5296 1.47754 47.6699 0.964844 50.0625 0.964844C53.7246 0.964844 56.5648 1.84375 58.583 3.60156C60.6175 5.35938 61.6348 7.84147 61.6348 11.0479C61.6348 12.8057 61.179 14.596 60.2676 16.4189C59.3561 18.2419 57.7936 20.3659 55.5801 22.791L47.499 31.3115H62.7822V37ZM90.2969 10.9014C90.2969 12.6266 89.8656 14.1566 89.0029 15.4912C88.1403 16.8258 86.9521 17.8919 85.4385 18.6895C87.1637 19.5195 88.5309 20.667 89.54 22.1318C90.5492 23.5804 91.0537 25.2894 91.0537 27.2588C91.0537 30.4163 89.9795 32.9147 87.8311 34.7539C85.6826 36.5768 82.7611 37.4883 79.0664 37.4883C75.3717 37.4883 72.4421 36.5687 70.2773 34.7295C68.1126 32.8903 67.0303 30.4001 67.0303 27.2588C67.0303 25.2894 67.5348 23.5723 68.5439 22.1074C69.5531 20.6426 70.9121 19.5033 72.6211 18.6895C71.1074 17.8919 69.9193 16.8258 69.0566 15.4912C68.2103 14.1566 67.7871 12.6266 67.7871 10.9014C67.7871 7.87402 68.7962 5.46517 70.8145 3.6748C72.8327 1.86816 75.5752 0.964844 79.042 0.964844C82.4925 0.964844 85.2269 1.86003 87.2451 3.65039C89.2796 5.42448 90.2969 7.84147 90.2969 10.9014ZM83.9736 26.7461C83.9736 25.1999 83.526 23.9629 82.6309 23.0352C81.7357 22.1074 80.5312 21.6436 79.0176 21.6436C77.5202 21.6436 76.3239 22.1074 75.4287 23.0352C74.5335 23.9466 74.0859 25.1836 74.0859 26.7461C74.0859 28.2598 74.5254 29.4805 75.4043 30.4082C76.2832 31.3359 77.5039 31.7998 79.0664 31.7998C80.5964 31.7998 81.7926 31.3522 82.6553 30.457C83.5342 29.5618 83.9736 28.3249 83.9736 26.7461ZM83.2412 11.2432C83.2412 9.8597 82.875 8.75293 82.1426 7.92285C81.4102 7.0765 80.3766 6.65332 79.042 6.65332C77.7236 6.65332 76.6982 7.06022 75.9658 7.87402C75.2334 8.68783 74.8672 9.81087 74.8672 11.2432C74.8672 12.6592 75.2334 13.7985 75.9658 14.6611C76.6982 15.5238 77.7318 15.9551 79.0664 15.9551C80.401 15.9551 81.4264 15.5238 82.1426 14.6611C82.875 13.7985 83.2412 12.6592 83.2412 11.2432Z" fill="#293145"/>
<path d="M7.34375 15.4707V7.43359H10.1562V18H7.50977L7.34375 15.4707ZM7.65625 13.3027L8.48633 13.2832C8.48633 13.9863 8.40495 14.6406 8.24219 15.2461C8.07943 15.8451 7.83529 16.3659 7.50977 16.8086C7.18424 17.2448 6.77409 17.5866 6.2793 17.834C5.78451 18.0749 5.20182 18.1953 4.53125 18.1953C4.01693 18.1953 3.54167 18.1237 3.10547 17.9805C2.67578 17.8307 2.30469 17.5996 1.99219 17.2871C1.6862 16.9681 1.44531 16.5612 1.26953 16.0664C1.10026 15.5651 1.01562 14.9629 1.01562 14.2598V7.43359H3.82812V14.2793C3.82812 14.5918 3.86393 14.8555 3.93555 15.0703C4.01367 15.2852 4.12109 15.4609 4.25781 15.5977C4.39453 15.7344 4.55404 15.832 4.73633 15.8906C4.92513 15.9492 5.13346 15.9785 5.36133 15.9785C5.94076 15.9785 6.39648 15.8613 6.72852 15.627C7.06706 15.3926 7.30469 15.0736 7.44141 14.6699C7.58464 14.2598 7.65625 13.804 7.65625 13.3027ZM18.0176 15.0801C18.0176 14.8783 17.959 14.696 17.8418 14.5332C17.7246 14.3704 17.5065 14.2207 17.1875 14.084C16.875 13.9408 16.4225 13.8105 15.8301 13.6934C15.2962 13.5762 14.7982 13.4297 14.3359 13.2539C13.8802 13.0716 13.4831 12.8535 13.1445 12.5996C12.8125 12.3457 12.5521 12.0462 12.3633 11.7012C12.1745 11.3496 12.0801 10.9492 12.0801 10.5C12.0801 10.0573 12.1745 9.64062 12.3633 9.25C12.5586 8.85938 12.8353 8.51432 13.1934 8.21484C13.5579 7.90885 14.0007 7.67122 14.5215 7.50195C15.0488 7.32617 15.6413 7.23828 16.2988 7.23828C17.2168 7.23828 18.0046 7.38477 18.6621 7.67773C19.3262 7.9707 19.834 8.37435 20.1855 8.88867C20.5436 9.39648 20.7227 9.97591 20.7227 10.627H17.9102C17.9102 10.3535 17.8516 10.1094 17.7344 9.89453C17.6237 9.67318 17.4479 9.50065 17.207 9.37695C16.9727 9.24674 16.6667 9.18164 16.2891 9.18164C15.9766 9.18164 15.7064 9.23698 15.4785 9.34766C15.2507 9.45182 15.0749 9.59505 14.9512 9.77734C14.834 9.95312 14.7754 10.1484 14.7754 10.3633C14.7754 10.526 14.8079 10.6725 14.873 10.8027C14.9447 10.9264 15.0586 11.0404 15.2148 11.1445C15.3711 11.2487 15.5729 11.3464 15.8203 11.4375C16.0742 11.5221 16.3867 11.6003 16.7578 11.6719C17.5195 11.8281 18.1999 12.0332 18.7988 12.2871C19.3978 12.5345 19.873 12.873 20.2246 13.3027C20.5762 13.7259 20.752 14.2826 20.752 14.9727C20.752 15.4414 20.6478 15.8711 20.4395 16.2617C20.2311 16.6523 19.9316 16.9941 19.541 17.2871C19.1504 17.5736 18.6816 17.7982 18.1348 17.9609C17.5944 18.1172 16.9857 18.1953 16.3086 18.1953C15.3255 18.1953 14.4922 18.0195 13.8086 17.668C13.1315 17.3164 12.6172 16.8704 12.2656 16.3301C11.9206 15.7832 11.748 15.2233 11.748 14.6504H14.4141C14.4271 15.0345 14.5247 15.3438 14.707 15.5781C14.8958 15.8125 15.1335 15.9818 15.4199 16.0859C15.7129 16.1901 16.0286 16.2422 16.3672 16.2422C16.7318 16.2422 17.0345 16.1934 17.2754 16.0957C17.5163 15.9915 17.6986 15.8548 17.8223 15.6855C17.9525 15.5098 18.0176 15.3079 18.0176 15.0801ZM28.8184 15.6953V3H31.6504V18H29.1016L28.8184 15.6953ZM22.1387 12.8438V12.6387C22.1387 11.8314 22.2298 11.099 22.4121 10.4414C22.5944 9.77734 22.8613 9.20768 23.2129 8.73242C23.5645 8.25716 23.9974 7.88932 24.5117 7.62891C25.026 7.36849 25.612 7.23828 26.2695 7.23828C26.888 7.23828 27.4284 7.36849 27.8906 7.62891C28.3594 7.88932 28.7565 8.26042 29.082 8.74219C29.4141 9.21745 29.681 9.7806 29.8828 10.4316C30.0846 11.0762 30.2311 11.7826 30.3223 12.5508V13C30.2311 13.7357 30.0846 14.4193 29.8828 15.0508C29.681 15.6823 29.4141 16.2357 29.082 16.7109C28.7565 17.1797 28.3594 17.5443 27.8906 17.8047C27.4219 18.0651 26.875 18.1953 26.25 18.1953C25.5924 18.1953 25.0065 18.0618 24.4922 17.7949C23.9844 17.528 23.5547 17.1536 23.2031 16.6719C22.8581 16.1901 22.5944 15.6237 22.4121 14.9727C22.2298 14.3216 22.1387 13.612 22.1387 12.8438ZM24.9512 12.6387V12.8438C24.9512 13.2799 24.9837 13.6868 25.0488 14.0645C25.1204 14.4421 25.2344 14.7773 25.3906 15.0703C25.5534 15.3568 25.7617 15.5814 26.0156 15.7441C26.276 15.9004 26.5918 15.9785 26.9629 15.9785C27.4447 15.9785 27.8418 15.8711 28.1543 15.6562C28.4668 15.4349 28.7044 15.1322 28.8672 14.748C29.0365 14.3639 29.1341 13.9212 29.1602 13.4199V12.1406C29.1406 11.7305 29.082 11.3626 28.9844 11.0371C28.8932 10.7051 28.7565 10.4219 28.5742 10.1875C28.3984 9.95312 28.1771 9.77083 27.9102 9.64062C27.6497 9.51042 27.3405 9.44531 26.9824 9.44531C26.6178 9.44531 26.3053 9.52995 26.0449 9.69922C25.7845 9.86198 25.5729 10.0866 25.4102 10.373C25.2539 10.6595 25.1367 10.998 25.0586 11.3887C24.987 11.7728 24.9512 12.1895 24.9512 12.6387Z" fill="#293145"/>
</svg>
