<svg width="163" height="40" viewBox="0 0 163 40" fill="none" xmlns="http://www.w3.org/2000/svg">
<path d="M111.318 17.1829L104.539 37.2542H101.822L108.602 17.1829H111.318ZM116.727 24.7747V35.6672H113.058V21.9309H116.498L116.727 24.7747ZM116.219 28.3167H115.203C115.203 27.3603 115.317 26.4801 115.546 25.676C115.783 24.8635 116.126 24.1611 116.574 23.5686C117.031 22.9677 117.594 22.5022 118.263 22.1721C118.931 21.842 119.706 21.677 120.586 21.677C121.195 21.677 121.754 21.7701 122.262 21.9563C122.77 22.134 123.205 22.4176 123.569 22.8069C123.942 23.1877 124.229 23.6871 124.433 24.3049C124.636 24.9143 124.737 25.6464 124.737 26.5012V35.6672H121.081V26.9075C121.081 26.2812 120.996 25.7987 120.827 25.4602C120.658 25.1217 120.417 24.8847 120.104 24.7493C119.799 24.6139 119.431 24.5461 118.999 24.5461C118.525 24.5461 118.11 24.6435 117.755 24.8381C117.408 25.0328 117.12 25.3036 116.892 25.6506C116.663 25.9892 116.494 26.387 116.384 26.844C116.274 27.301 116.219 27.7919 116.219 28.3167ZM124.395 27.8977L123.087 28.0627C123.087 27.1656 123.197 26.3319 123.417 25.5618C123.646 24.7916 123.98 24.1145 124.42 23.5305C124.868 22.9465 125.423 22.4937 126.083 22.1721C126.743 21.842 127.505 21.677 128.368 21.677C129.028 21.677 129.629 21.7743 130.171 21.969C130.713 22.1552 131.174 22.4556 131.555 22.8704C131.944 23.2766 132.24 23.8098 132.443 24.47C132.655 25.1301 132.761 25.9384 132.761 26.8948V35.6672H129.092V26.8948C129.092 26.26 129.007 25.7776 128.838 25.4475C128.677 25.109 128.44 24.8762 128.127 24.7493C127.822 24.6139 127.458 24.5461 127.035 24.5461C126.595 24.5461 126.21 24.635 125.88 24.8127C125.55 24.982 125.275 25.219 125.055 25.5237C124.835 25.8284 124.67 26.1838 124.56 26.5901C124.45 26.9879 124.395 27.4237 124.395 27.8977Z" fill="#293145"/>
<path d="M60.9209 22.791C59.0817 24.5977 56.9333 25.501 54.4756 25.501C51.3343 25.501 48.8197 24.4268 46.9316 22.2783C45.0436 20.1136 44.0996 17.2002 44.0996 13.5381C44.0996 11.2106 44.6042 9.07845 45.6133 7.1416C46.6387 5.18848 48.0628 3.6748 49.8857 2.60059C51.7087 1.51009 53.7594 0.964844 56.0381 0.964844C58.3818 0.964844 60.4652 1.55078 62.2881 2.72266C64.111 3.89453 65.527 5.5791 66.5361 7.77637C67.5452 9.97363 68.0579 12.4883 68.0742 15.3203V17.9326C68.0742 23.8571 66.6012 28.512 63.6553 31.8975C60.7093 35.2829 56.5345 37.0895 51.1309 37.3174L49.3975 37.3418V31.458L50.96 31.4336C57.096 31.1569 60.4163 28.276 60.9209 22.791ZM56.209 20.1055C57.3483 20.1055 58.3249 19.8125 59.1387 19.2266C59.9688 18.6406 60.5954 17.9326 61.0186 17.1025V14.1973C61.0186 11.8047 60.5628 9.94922 59.6514 8.63086C58.7399 7.3125 57.5192 6.65332 55.9893 6.65332C54.5732 6.65332 53.4095 7.30436 52.498 8.60645C51.5866 9.89225 51.1309 11.5117 51.1309 13.4648C51.1309 15.4017 51.5703 16.9967 52.4492 18.25C53.3444 19.487 54.5977 20.1055 56.209 20.1055ZM94.002 23.6211H98.0303V29.3096H94.002V37H86.9463V29.3096H72.3711L72.0537 24.8662L86.873 1.45312H94.002V23.6211ZM79.085 23.6211H86.9463V11.0723L86.4824 11.8779L79.085 23.6211Z" fill="#293145"/>
<path d="M7.34375 16.4707V8.43359H10.1562V19H7.50977L7.34375 16.4707ZM7.65625 14.3027L8.48633 14.2832C8.48633 14.9863 8.40495 15.6406 8.24219 16.2461C8.07943 16.8451 7.83529 17.3659 7.50977 17.8086C7.18424 18.2448 6.77409 18.5866 6.2793 18.834C5.78451 19.0749 5.20182 19.1953 4.53125 19.1953C4.01693 19.1953 3.54167 19.1237 3.10547 18.9805C2.67578 18.8307 2.30469 18.5996 1.99219 18.2871C1.6862 17.9681 1.44531 17.5612 1.26953 17.0664C1.10026 16.5651 1.01562 15.9629 1.01562 15.2598V8.43359H3.82812V15.2793C3.82812 15.5918 3.86393 15.8555 3.93555 16.0703C4.01367 16.2852 4.12109 16.4609 4.25781 16.5977C4.39453 16.7344 4.55404 16.832 4.73633 16.8906C4.92513 16.9492 5.13346 16.9785 5.36133 16.9785C5.94076 16.9785 6.39648 16.8613 6.72852 16.627C7.06706 16.3926 7.30469 16.0736 7.44141 15.6699C7.58464 15.2598 7.65625 14.804 7.65625 14.3027ZM18.0176 16.0801C18.0176 15.8783 17.959 15.696 17.8418 15.5332C17.7246 15.3704 17.5065 15.2207 17.1875 15.084C16.875 14.9408 16.4225 14.8105 15.8301 14.6934C15.2962 14.5762 14.7982 14.4297 14.3359 14.2539C13.8802 14.0716 13.4831 13.8535 13.1445 13.5996C12.8125 13.3457 12.5521 13.0462 12.3633 12.7012C12.1745 12.3496 12.0801 11.9492 12.0801 11.5C12.0801 11.0573 12.1745 10.6406 12.3633 10.25C12.5586 9.85938 12.8353 9.51432 13.1934 9.21484C13.5579 8.90885 14.0007 8.67122 14.5215 8.50195C15.0488 8.32617 15.6413 8.23828 16.2988 8.23828C17.2168 8.23828 18.0046 8.38477 18.6621 8.67773C19.3262 8.9707 19.834 9.37435 20.1855 9.88867C20.5436 10.3965 20.7227 10.9759 20.7227 11.627H17.9102C17.9102 11.3535 17.8516 11.1094 17.7344 10.8945C17.6237 10.6732 17.4479 10.5007 17.207 10.377C16.9727 10.2467 16.6667 10.1816 16.2891 10.1816C15.9766 10.1816 15.7064 10.237 15.4785 10.3477C15.2507 10.4518 15.0749 10.5951 14.9512 10.7773C14.834 10.9531 14.7754 11.1484 14.7754 11.3633C14.7754 11.526 14.8079 11.6725 14.873 11.8027C14.9447 11.9264 15.0586 12.0404 15.2148 12.1445C15.3711 12.2487 15.5729 12.3464 15.8203 12.4375C16.0742 12.5221 16.3867 12.6003 16.7578 12.6719C17.5195 12.8281 18.1999 13.0332 18.7988 13.2871C19.3978 13.5345 19.873 13.873 20.2246 14.3027C20.5762 14.7259 20.752 15.2826 20.752 15.9727C20.752 16.4414 20.6478 16.8711 20.4395 17.2617C20.2311 17.6523 19.9316 17.9941 19.541 18.2871C19.1504 18.5736 18.6816 18.7982 18.1348 18.9609C17.5944 19.1172 16.9857 19.1953 16.3086 19.1953C15.3255 19.1953 14.4922 19.0195 13.8086 18.668C13.1315 18.3164 12.6172 17.8704 12.2656 17.3301C11.9206 16.7832 11.748 16.2233 11.748 15.6504H14.4141C14.4271 16.0345 14.5247 16.3438 14.707 16.5781C14.8958 16.8125 15.1335 16.9818 15.4199 17.0859C15.7129 17.1901 16.0286 17.2422 16.3672 17.2422C16.7318 17.2422 17.0345 17.1934 17.2754 17.0957C17.5163 16.9915 17.6986 16.8548 17.8223 16.6855C17.9525 16.5098 18.0176 16.3079 18.0176 16.0801ZM28.8184 16.6953V4H31.6504V19H29.1016L28.8184 16.6953ZM22.1387 13.8438V13.6387C22.1387 12.8314 22.2298 12.099 22.4121 11.4414C22.5944 10.7773 22.8613 10.2077 23.2129 9.73242C23.5645 9.25716 23.9974 8.88932 24.5117 8.62891C25.026 8.36849 25.612 8.23828 26.2695 8.23828C26.888 8.23828 27.4284 8.36849 27.8906 8.62891C28.3594 8.88932 28.7565 9.26042 29.082 9.74219C29.4141 10.2174 29.681 10.7806 29.8828 11.4316C30.0846 12.0762 30.2311 12.7826 30.3223 13.5508V14C30.2311 14.7357 30.0846 15.4193 29.8828 16.0508C29.681 16.6823 29.4141 17.2357 29.082 17.7109C28.7565 18.1797 28.3594 18.5443 27.8906 18.8047C27.4219 19.0651 26.875 19.1953 26.25 19.1953C25.5924 19.1953 25.0065 19.0618 24.4922 18.7949C23.9844 18.528 23.5547 18.1536 23.2031 17.6719C22.8581 17.1901 22.5944 16.6237 22.4121 15.9727C22.2298 15.3216 22.1387 14.612 22.1387 13.8438ZM24.9512 13.6387V13.8438C24.9512 14.2799 24.9837 14.6868 25.0488 15.0645C25.1204 15.4421 25.2344 15.7773 25.3906 16.0703C25.5534 16.3568 25.7617 16.5814 26.0156 16.7441C26.276 16.9004 26.5918 16.9785 26.9629 16.9785C27.4447 16.9785 27.8418 16.8711 28.1543 16.6562C28.4668 16.4349 28.7044 16.1322 28.8672 15.748C29.0365 15.3639 29.1341 14.9212 29.1602 14.4199V13.1406C29.1406 12.7305 29.082 12.3626 28.9844 12.0371C28.8932 11.7051 28.7565 11.4219 28.5742 11.1875C28.3984 10.9531 28.1771 10.7708 27.9102 10.6406C27.6497 10.5104 27.3405 10.4453 26.9824 10.4453C26.6178 10.4453 26.3053 10.5299 26.0449 10.6992C25.7845 10.862 25.5729 11.0866 25.4102 11.373C25.2539 11.6595 25.1367 11.998 25.0586 12.3887C24.987 12.7728 24.9512 13.1895 24.9512 13.6387Z" fill="#293145"/>
</svg>
