<svg width="158" height="39" viewBox="0 0 158 39" fill="none" xmlns="http://www.w3.org/2000/svg">
<path d="M106.318 16.1829L99.5391 36.2542H96.8223L103.602 16.1829H106.318ZM111.727 23.7747V34.6672H108.058V20.9309H111.498L111.727 23.7747ZM111.219 27.3167H110.203C110.203 26.3603 110.317 25.4801 110.546 24.676C110.783 23.8635 111.126 23.1611 111.574 22.5686C112.031 21.9677 112.594 21.5022 113.263 21.1721C113.931 20.842 114.706 20.677 115.586 20.677C116.195 20.677 116.754 20.7701 117.262 20.9563C117.77 21.134 118.205 21.4176 118.569 21.8069C118.942 22.1877 119.229 22.6871 119.433 23.3049C119.636 23.9143 119.737 24.6464 119.737 25.5012V34.6672H116.081V25.9075C116.081 25.2812 115.996 24.7987 115.827 24.4602C115.658 24.1217 115.417 23.8847 115.104 23.7493C114.799 23.6139 114.431 23.5461 113.999 23.5461C113.525 23.5461 113.11 23.6435 112.755 23.8381C112.408 24.0328 112.12 24.3036 111.892 24.6506C111.663 24.9892 111.494 25.387 111.384 25.844C111.274 26.301 111.219 26.7919 111.219 27.3167ZM119.395 26.8977L118.087 27.0627C118.087 26.1656 118.197 25.3319 118.417 24.5618C118.646 23.7916 118.98 23.1145 119.42 22.5305C119.868 21.9465 120.423 21.4937 121.083 21.1721C121.743 20.842 122.505 20.677 123.368 20.677C124.028 20.677 124.629 20.7743 125.171 20.969C125.713 21.1552 126.174 21.4556 126.555 21.8704C126.944 22.2766 127.24 22.8098 127.443 23.47C127.655 24.1301 127.761 24.9384 127.761 25.8948V34.6672H124.092V25.8948C124.092 25.26 124.007 24.7776 123.838 24.4475C123.677 24.109 123.44 23.8762 123.127 23.7493C122.822 23.6139 122.458 23.5461 122.035 23.5461C121.595 23.5461 121.21 23.635 120.88 23.8127C120.55 23.982 120.275 24.219 120.055 24.5237C119.835 24.8284 119.67 25.1838 119.56 25.5901C119.45 25.9879 119.395 26.4237 119.395 26.8977Z" fill="white"/>
<path d="M40.4668 18.5195L42.5176 0.453125H62.4395V6.33691H48.3037L47.4248 13.9785C49.1012 13.0833 50.8835 12.6357 52.7715 12.6357C56.1569 12.6357 58.8099 13.6855 60.7305 15.7852C62.651 17.8848 63.6113 20.8226 63.6113 24.5986C63.6113 26.8936 63.123 28.9525 62.1465 30.7754C61.1862 32.582 59.8027 33.9899 57.9961 34.999C56.1895 35.9919 54.0573 36.4883 51.5996 36.4883C49.4512 36.4883 47.4574 36.057 45.6182 35.1943C43.779 34.3154 42.3223 33.0866 41.248 31.5078C40.1901 29.929 39.6286 28.1305 39.5635 26.1123H46.5459C46.6924 27.5934 47.2051 28.749 48.084 29.5791C48.9792 30.3929 50.1429 30.7998 51.5752 30.7998C53.1702 30.7998 54.3991 30.2301 55.2617 29.0908C56.1243 27.9352 56.5557 26.3076 56.5557 24.208C56.5557 22.1898 56.0592 20.6436 55.0664 19.5693C54.0736 18.4951 52.6657 17.958 50.8428 17.958C49.1663 17.958 47.8073 18.3975 46.7656 19.2764L46.082 19.9111L40.4668 18.5195ZM92.2979 4.4082L78.5527 36H71.1064L84.876 6.16602H67.2002V0.453125H92.2979V4.4082Z" fill="white"/>
<path d="M7.34375 15.4707V7.43359H10.1562V18H7.50977L7.34375 15.4707ZM7.65625 13.3027L8.48633 13.2832C8.48633 13.9863 8.40495 14.6406 8.24219 15.2461C8.07943 15.8451 7.83529 16.3659 7.50977 16.8086C7.18424 17.2448 6.77409 17.5866 6.2793 17.834C5.78451 18.0749 5.20182 18.1953 4.53125 18.1953C4.01693 18.1953 3.54167 18.1237 3.10547 17.9805C2.67578 17.8307 2.30469 17.5996 1.99219 17.2871C1.6862 16.9681 1.44531 16.5612 1.26953 16.0664C1.10026 15.5651 1.01562 14.9629 1.01562 14.2598V7.43359H3.82812V14.2793C3.82812 14.5918 3.86393 14.8555 3.93555 15.0703C4.01367 15.2852 4.12109 15.4609 4.25781 15.5977C4.39453 15.7344 4.55404 15.832 4.73633 15.8906C4.92513 15.9492 5.13346 15.9785 5.36133 15.9785C5.94076 15.9785 6.39648 15.8613 6.72852 15.627C7.06706 15.3926 7.30469 15.0736 7.44141 14.6699C7.58464 14.2598 7.65625 13.804 7.65625 13.3027ZM18.0176 15.0801C18.0176 14.8783 17.959 14.696 17.8418 14.5332C17.7246 14.3704 17.5065 14.2207 17.1875 14.084C16.875 13.9408 16.4225 13.8105 15.8301 13.6934C15.2962 13.5762 14.7982 13.4297 14.3359 13.2539C13.8802 13.0716 13.4831 12.8535 13.1445 12.5996C12.8125 12.3457 12.5521 12.0462 12.3633 11.7012C12.1745 11.3496 12.0801 10.9492 12.0801 10.5C12.0801 10.0573 12.1745 9.64062 12.3633 9.25C12.5586 8.85938 12.8353 8.51432 13.1934 8.21484C13.5579 7.90885 14.0007 7.67122 14.5215 7.50195C15.0488 7.32617 15.6413 7.23828 16.2988 7.23828C17.2168 7.23828 18.0046 7.38477 18.6621 7.67773C19.3262 7.9707 19.834 8.37435 20.1855 8.88867C20.5436 9.39648 20.7227 9.97591 20.7227 10.627H17.9102C17.9102 10.3535 17.8516 10.1094 17.7344 9.89453C17.6237 9.67318 17.4479 9.50065 17.207 9.37695C16.9727 9.24674 16.6667 9.18164 16.2891 9.18164C15.9766 9.18164 15.7064 9.23698 15.4785 9.34766C15.2507 9.45182 15.0749 9.59505 14.9512 9.77734C14.834 9.95312 14.7754 10.1484 14.7754 10.3633C14.7754 10.526 14.8079 10.6725 14.873 10.8027C14.9447 10.9264 15.0586 11.0404 15.2148 11.1445C15.3711 11.2487 15.5729 11.3464 15.8203 11.4375C16.0742 11.5221 16.3867 11.6003 16.7578 11.6719C17.5195 11.8281 18.1999 12.0332 18.7988 12.2871C19.3978 12.5345 19.873 12.873 20.2246 13.3027C20.5762 13.7259 20.752 14.2826 20.752 14.9727C20.752 15.4414 20.6478 15.8711 20.4395 16.2617C20.2311 16.6523 19.9316 16.9941 19.541 17.2871C19.1504 17.5736 18.6816 17.7982 18.1348 17.9609C17.5944 18.1172 16.9857 18.1953 16.3086 18.1953C15.3255 18.1953 14.4922 18.0195 13.8086 17.668C13.1315 17.3164 12.6172 16.8704 12.2656 16.3301C11.9206 15.7832 11.748 15.2233 11.748 14.6504H14.4141C14.4271 15.0345 14.5247 15.3438 14.707 15.5781C14.8958 15.8125 15.1335 15.9818 15.4199 16.0859C15.7129 16.1901 16.0286 16.2422 16.3672 16.2422C16.7318 16.2422 17.0345 16.1934 17.2754 16.0957C17.5163 15.9915 17.6986 15.8548 17.8223 15.6855C17.9525 15.5098 18.0176 15.3079 18.0176 15.0801ZM28.8184 15.6953V3H31.6504V18H29.1016L28.8184 15.6953ZM22.1387 12.8438V12.6387C22.1387 11.8314 22.2298 11.099 22.4121 10.4414C22.5944 9.77734 22.8613 9.20768 23.2129 8.73242C23.5645 8.25716 23.9974 7.88932 24.5117 7.62891C25.026 7.36849 25.612 7.23828 26.2695 7.23828C26.888 7.23828 27.4284 7.36849 27.8906 7.62891C28.3594 7.88932 28.7565 8.26042 29.082 8.74219C29.4141 9.21745 29.681 9.7806 29.8828 10.4316C30.0846 11.0762 30.2311 11.7826 30.3223 12.5508V13C30.2311 13.7357 30.0846 14.4193 29.8828 15.0508C29.681 15.6823 29.4141 16.2357 29.082 16.7109C28.7565 17.1797 28.3594 17.5443 27.8906 17.8047C27.4219 18.0651 26.875 18.1953 26.25 18.1953C25.5924 18.1953 25.0065 18.0618 24.4922 17.7949C23.9844 17.528 23.5547 17.1536 23.2031 16.6719C22.8581 16.1901 22.5944 15.6237 22.4121 14.9727C22.2298 14.3216 22.1387 13.612 22.1387 12.8438ZM24.9512 12.6387V12.8438C24.9512 13.2799 24.9837 13.6868 25.0488 14.0645C25.1204 14.4421 25.2344 14.7773 25.3906 15.0703C25.5534 15.3568 25.7617 15.5814 26.0156 15.7441C26.276 15.9004 26.5918 15.9785 26.9629 15.9785C27.4447 15.9785 27.8418 15.8711 28.1543 15.6562C28.4668 15.4349 28.7044 15.1322 28.8672 14.748C29.0365 14.3639 29.1341 13.9212 29.1602 13.4199V12.1406C29.1406 11.7305 29.082 11.3626 28.9844 11.0371C28.8932 10.7051 28.7565 10.4219 28.5742 10.1875C28.3984 9.95312 28.1771 9.77083 27.9102 9.64062C27.6497 9.51042 27.3405 9.44531 26.9824 9.44531C26.6178 9.44531 26.3053 9.52995 26.0449 9.69922C25.7845 9.86198 25.5729 10.0866 25.4102 10.373C25.2539 10.6595 25.1367 10.998 25.0586 11.3887C24.987 11.7728 24.9512 12.1895 24.9512 12.6387Z" fill="white"/>
</svg>
